<?xml version="1.0" encoding="iso-8859-1"?>
<!-- Generator: Adobe Illustrator 19.0.0, SVG Export Plug-In . SVG Version: 6.00 Build 0)  -->
<svg version="1.1" id="Layer_1" xmlns="http://www.w3.org/2000/svg" xmlns:xlink="http://www.w3.org/1999/xlink" x="0px" y="0px"
	 viewBox="0 0 512.001 512.001" style="enable-background:new 0 0 512.001 512.001;" xml:space="preserve">
<path style="fill:#212121;" d="M82.321,264.633c-41.902,0-75.992,34.09-75.992,75.992s34.089,75.992,75.992,75.992
	s75.992-34.09,75.992-75.992S124.223,264.633,82.321,264.633z M82.321,395.517c-30.268,0-54.893-24.625-54.893-54.893
	s24.625-54.893,54.893-54.893s54.893,24.625,54.893,54.893S112.589,395.517,82.321,395.517z"/>
<path style="fill:#9B6331;" d="M31.325,287.269c-13.133,0-23.779-10.646-23.779-23.779v-49.883c0-1.585,1.285-2.868,2.868-2.868
	h113.909c1.585,0,2.868,1.285,2.868,2.868v49.883c0,13.133-10.646,23.779-23.779,23.779H31.325z"/>
<g>
	<path style="fill:#935828;" d="M22.499,263.489v-49.883c0-1.585,1.284-2.868,2.868-2.868H10.414c-1.585,0-2.868,1.284-2.868,2.868
		v49.883c0,13.133,10.646,23.779,23.779,23.779h14.954C33.144,287.269,22.499,276.622,22.499,263.489z"/>
	<path style="fill:#935828;" d="M10.414,210.738c-0.042,0-0.082,0.011-0.124,0.013l13.165,37.882
		c1.447,3.985,5.506,6.672,10.078,6.672h67.67c4.572,0,8.632-2.688,10.078-6.672l13.469-37.851c-0.14-0.022-0.281-0.043-0.428-0.043
		H10.414z"/>
</g>
<path style="fill:#774923;" d="M36.287,244.153H98.45c4.201,0,7.929-2.688,9.258-6.672l8.914-26.743H18.115l8.914,26.743
	C28.357,241.465,32.087,244.153,36.287,244.153z"/>
<g>
	<path style="fill:#9B6331;" d="M365.926,101.059c-10.479,0-19.004-8.525-19.004-19.004c0-10.48,8.525-19.005,19.004-19.005
		s19.004,8.525,19.004,19.005C384.93,92.534,376.405,101.059,365.926,101.059z"/>
	<path style="fill:#9B6331;" d="M384.292,233.374l-36.125-87.309h113.689c5.658,0,10.262,4.604,10.262,10.262v38.747
		c0,21.119-17.182,38.301-38.301,38.301L384.292,233.374L384.292,233.374z"/>
</g>
<path style="fill:#935828;" d="M452.77,214.914h-36.332c-8.693,0-16.531-5.234-19.861-13.262l-23.063-55.587h-25.347l36.125,87.309
	h49.524c15.212,0,28.38-8.915,34.557-21.796C463.604,213.715,458.325,214.914,452.77,214.914z"/>
<path style="fill:#D8A32E;" d="M153.6,147.142c-9.213,0-16.707-7.495-16.707-16.707s7.495-16.707,16.707-16.707h43.116
	c9.213,0,16.707,7.495,16.707,16.707s-7.495,16.707-16.707,16.707H153.6z"/>
<path style="fill:#212121;" d="M428.463,264.633c-41.902,0-75.992,34.09-75.992,75.992s34.09,75.992,75.992,75.992
	s75.992-34.09,75.992-75.992S470.365,264.633,428.463,264.633z M428.463,395.517c-30.268,0-54.893-24.625-54.893-54.893
	s24.625-54.893,54.893-54.893c30.268,0,54.893,24.625,54.893,54.893S458.732,395.517,428.463,395.517z"/>
<g>
	<path style="fill:#C13530;" d="M268.622,318.008c-2.093-3.324-4.619-6.335-7.505-8.949l-7.415-6.712l91.931-75.332l12.487,30.21
		l-84.288,69.056L268.622,318.008z"/>
	<path style="fill:#C13530;" d="M371.9,290.441L310.477,142.39c-0.692-1.668,0.099-3.581,1.767-4.273l24.731-10.262
		c1.667-0.692,3.581,0.099,4.273,1.767l61.232,147.592l36.849,39.507c0,0-29.862-1.967-33.104,1.212l-2.229,12.297L371.9,290.441z"
		/>
	<path style="fill:#C13530;" d="M171.724,180.932l25.089-8.035c1.454-0.466,3.009,0.335,3.475,1.789l39.27,122.593l-10.747,0.945
		c-4.066,0.358-8.058,1.303-11.853,2.806l-8.578,3.399l-38.446-120.021C169.469,182.954,170.27,181.398,171.724,180.932z"/>
</g>
<path style="fill:#3A3A3A;" d="M428.463,373.5c-18.127,0-32.876-14.749-32.876-32.876s14.749-32.876,32.876-32.876
	c18.127,0,32.876,14.749,32.876,32.876S446.59,373.5,428.463,373.5z"/>
<path style="fill:#D8A32E;" d="M232.581,386.226c-25.145,0-45.601-20.456-45.601-45.601s20.456-45.601,45.601-45.601
	c25.144,0,45.6,20.456,45.6,45.601S257.725,386.226,232.581,386.226z"/>
<g>
	<path style="fill:#212121;" d="M217.194,448.953c-8.617,0-15.627-7.011-15.627-15.627s7.01-15.626,15.627-15.626h34.498
		c8.617,0,15.627,7.011,15.627,15.627c0,8.617-7.011,15.626-15.627,15.626H217.194z"/>
	<path style="fill:#212121;" d="M83.537,370.267c-16.345,0-29.642-13.298-29.642-29.642s13.297-29.642,29.642-29.642
		s29.642,13.298,29.642,29.642S99.882,370.267,83.537,370.267z M83.537,327.151c-7.43,0-13.474,6.044-13.474,13.474
		s6.044,13.474,13.474,13.474c7.43,0,13.474-6.045,13.474-13.474C97.011,333.196,90.967,327.151,83.537,327.151z"/>
</g>
<path d="M433.421,257.233c-10.341-0.607-20.3,0.702-29.578,3.574l-8.251-19.889h38.225c25.32,0,45.846-20.526,45.846-45.846v-38.747
	c0-9.834-7.972-17.807-17.807-17.807H353.11l-5.861-14.127c-0.432-1.042-1.026-2.023-1.83-2.814
	c-2.418-2.375-5.881-2.955-8.811-1.739l-7.677,3.185l-14.194-33.011h25.86c3.615,11.479,14.832,19.619,27.72,18.485
	c12.929-1.137,23.291-11.785,24.105-24.739c0.968-15.41-11.292-28.256-26.496-28.256c-11.774,0-21.778,7.708-25.244,18.341h-27.298
	c-4.397,0-8.702,1.719-11.616,5.01c-3.932,4.44-4.87,10.601-2.587,15.912l14.812,34.454l-7.164,2.972
	c-4.124,1.712-6.08,6.441-4.37,10.566l14.493,34.935c1.253,3.019,4.199,4.986,7.468,4.986l0,0c5.764,0,9.676-5.858,7.468-11.182
	l-11.395-27.467l14.843-6.158l4.909,11.833c0.011,0.026,0.022,0.053,0.032,0.079l35.751,86.173c0.005,0.014,0.012,0.028,0.017,0.043
	l18.507,44.611c0.371,0.891,0.897,1.71,1.555,2.416l18.354,19.679c-5.393,1.998-10.243,5.118-14.276,9.07l-20.799-25.783
	l-13.591-32.759c-0.009-0.023-0.018-0.044-0.028-0.066l-12.065-29.081c-0.008-0.018-0.015-0.037-0.023-0.055l-5.754-13.87
	c-1.245-3-4.185-4.944-7.434-4.914l-0.24,0.002c-5.654,0.053-9.459,5.809-7.292,11.031l3.476,8.38l-83.851,68.839
	c-2.285-0.974-4.655-1.786-7.096-2.422l-38.695-120.811c-1.362-4.251-5.914-6.592-10.165-5.232l-6.859,2.197l-4.18-12.542h10.529
	c13.133,0,24.333-10.193,24.83-23.316c0.523-13.797-10.55-25.189-24.235-25.189h-42.52c-13.133,0-24.333,10.193-24.83,23.316
	c-0.523,13.797,10.55,25.189,24.235,25.189h14.958c0.018,0.058,0.029,0.116,0.049,0.175l5.766,17.3l-6.897,2.209
	c-1.071,0.343-2.097,0.854-2.948,1.589c-2.56,2.213-3.424,5.614-2.458,8.631l12.864,40.159h-40.197v-13.474
	c0-4.465-3.62-8.084-8.084-8.084H8.084c-4.465,0-8.084,3.62-8.084,8.084v52.212c0,11.853,6.618,22.187,16.352,27.507
	C4.9,306.453-0.898,325.37,0.113,345.017c2.229,43.29,37.858,77.979,81.191,79.115c32.435,0.85,60.881-16.898,75.443-43.325
	l60.366,8.623c2.39,0.759,4.856,1.346,7.382,1.749v18.974h-6.734c-12.549,0-23.25,9.739-23.724,22.278
	c-0.499,13.183,10.08,24.066,23.155,24.066h33.928c12.549,0,23.25-9.739,23.724-22.278c0.499-13.183-10.08-24.066-23.155-24.066
	h-11.026V391.18c24.402-3.888,43.116-25.075,43.116-50.555c0-4.003-0.476-7.896-1.351-11.637l72.574-59.581l8.04,19.379
	c-12.27,15.446-19.221,35.297-17.973,56.778c2.462,42.41,36.957,76.512,79.391,78.503c49.014,2.3,89.423-37.901,87.471-86.843
	C510.23,294.56,476.047,259.736,433.421,257.233z M365.926,71.672c5.725,0,10.381,4.658,10.381,10.382s-4.657,10.381-10.381,10.381
	s-10.381-4.657-10.381-10.381S360.202,71.672,365.926,71.672z M388.884,224.751l-29.067-70.063h102.04
	c0.903,0,1.638,0.735,1.638,1.638v14.53h-56.589c-4.466,0-8.084,3.618-8.084,8.084s3.618,8.084,8.084,8.084h56.588v8.049
	c0,16.365-13.314,29.678-29.678,29.678H388.884z M193.864,182.897l34.191,106.739c-3.778,0.333-7.441,1.07-10.941,2.182
	l-3.557,0.508l-33.624-104.968L193.864,182.897z M153.6,138.519c-4.458,0-8.084-3.626-8.084-8.084s3.626-8.084,8.084-8.084h43.116
	c4.458,0,8.084,3.626,8.084,8.084s-3.626,8.084-8.084,8.084H153.6z M134.737,263.489v-22.57h30.738l-25.378,38.22
	c-2.205-2.028-4.538-3.939-6.977-5.74C134.163,270.283,134.737,266.954,134.737,263.489z M104.657,219.361l-5.389,16.168H35.469
	l-5.389-16.168H104.657z M16.168,263.489v-34.732l5.804,17.412c1.101,3.302,4.19,5.527,7.669,5.527h75.453
	c3.479,0,6.569-2.226,7.669-5.527l5.804-17.411v34.732c0,8.357-6.799,15.156-15.156,15.156H31.325
	C22.968,278.645,16.168,271.846,16.168,263.489z M83.537,407.993c-37.146,0-67.368-30.221-67.368-67.368
	c0-17.101,6.392-33.315,17.998-45.811h69.247c7.967,0,15.245-2.994,20.779-7.912c5.98,4.528,11.083,9.955,15.181,16.021L82.837,311
	c-16.022,0.375-28.943,13.516-28.943,29.625s12.921,29.25,28.943,29.624l56.508,8.072
	C127.22,396.211,106.729,407.993,83.537,407.993z M97.011,340.624c0,7.43-6.044,13.474-13.474,13.474
	c-7.43,0-13.474-6.045-13.474-13.474c0-7.425,6.036-13.464,13.458-13.473h0.005c0.004,0,0.009-0.001,0.013-0.001
	C90.968,327.152,97.011,333.196,97.011,340.624z M147.04,363.088l-39.15-5.592c3.331-4.792,5.289-10.605,5.289-16.87
	c0-6.265-1.959-12.078-5.289-16.87l39.171-5.595c2.514,7.114,3.845,14.695,3.845,22.467
	C150.905,348.498,149.534,356.057,147.04,363.088z M190.147,369.246l-26.829-3.833c2.439-7.835,3.755-16.162,3.755-24.789
	c0-8.528-1.299-16.869-3.756-24.788l26.83-3.833c-5.533,8.176-8.767,18.028-8.767,28.621
	C181.381,351.217,184.614,361.07,190.147,369.246z M156.78,300.436c-1.67-3.043-3.531-5.981-5.573-8.8l30.458-45.871l15.657,48.879
	L156.78,300.436z M251.691,426.322c3.862,0,7.004,3.142,7.004,7.004c0,3.861-3.142,7.003-7.004,7.003h-34.498
	c-3.862,0-7.004-3.142-7.004-7.004c0-3.861,3.142-7.003,7.004-7.003H251.691z M240.665,374.704v-34.08
	c0-4.466-3.62-8.084-8.084-8.084c-4.465,0-8.084,3.618-8.084,8.084v33.528l-3.632-0.518c-13.571-4.831-23.315-17.801-23.315-33.009
	c0-15.208,9.744-28.178,23.315-33.009l13.724-1.961c18.386,1.044,33.023,16.327,33.023,34.97
	C267.611,357.158,256.095,371.044,240.665,374.704z M275.919,313.413c-2.509-3.982-5.543-7.601-9.017-10.746l76.011-62.404
	l5.616,13.538L275.919,313.413z M428.463,316.372c13.372,0,24.253,10.88,24.253,24.253s-10.88,24.253-24.253,24.253
	s-24.253-10.88-24.253-24.253S415.091,316.372,428.463,316.372z M428.463,407.993c-37.147,0-67.368-30.221-67.368-67.368
	c0-13.842,4.219-26.706,11.409-37.416l18.32,22.709c-1.788,4.562-2.782,9.519-2.782,14.708c0,22.289,18.132,40.421,40.421,40.421
	s40.421-18.132,40.421-40.421c0-20.173-14.854-36.939-34.198-39.941l-23.467-25.161c5.507-1.465,11.281-2.267,17.244-2.267
	c37.147,0,67.368,30.221,67.368,67.368S465.611,407.993,428.463,407.993z"/>
<g>
</g>
<g>
</g>
<g>
</g>
<g>
</g>
<g>
</g>
<g>
</g>
<g>
</g>
<g>
</g>
<g>
</g>
<g>
</g>
<g>
</g>
<g>
</g>
<g>
</g>
<g>
</g>
<g>
</g>
</svg>
